<?xml version="1.0" encoding="UTF-8" standalone="no"?>
<!-- Created with Inkscape (http://www.inkscape.org/) -->

<svg
   width="880"
   height="1000"
   viewBox="0 0 232.83332 264.58334"
   version="1.1"
   id="svg1"
   xml:space="preserve"
   inkscape:version="1.4.2 (ebf0e940, 2025-05-08)"
   sodipodi:docname="logo.svg"
   xmlns:inkscape="http://www.inkscape.org/namespaces/inkscape"
   xmlns:sodipodi="http://sodipodi.sourceforge.net/DTD/sodipodi-0.dtd"
   xmlns="http://www.w3.org/2000/svg"
   xmlns:svg="http://www.w3.org/2000/svg"><sodipodi:namedview
     id="namedview1"
     pagecolor="#ffffff"
     bordercolor="#000000"
     borderopacity="0.25"
     inkscape:showpageshadow="2"
     inkscape:pageopacity="0.0"
     inkscape:pagecheckerboard="0"
     inkscape:deskcolor="#d1d1d1"
     inkscape:document-units="px"
     showborder="true"
     inkscape:zoom="0.44943533"
     inkscape:cx="458.35293"
     inkscape:cy="297.0394"
     inkscape:window-width="1392"
     inkscape:window-height="1186"
     inkscape:window-x="474"
     inkscape:window-y="79"
     inkscape:window-maximized="0"
     inkscape:current-layer="layer1" /><defs
     id="defs1" /><g
     inkscape:label="Layer 1"
     inkscape:groupmode="layer"
     id="layer1"
     transform="translate(-4.4420458,-16.464297)"><path
       style="fill:#326ce5;fill-opacity:1;stroke:none;stroke-width:1;stroke-linecap:butt;stroke-linejoin:round;stroke-dasharray:none;stroke-opacity:1;paint-order:normal"
       d="m 78.494958,276.29466 c -3.455644,-0.1494 -9.955992,-0.91427 -13.006182,-1.53037 -7.713198,-1.55799 -12.195624,-3.74081 -13.58795,-6.61698 -0.830451,-1.71548 -0.685734,-4.61668 0.304963,-6.11372 1.731043,-2.61578 7.150014,-4.95951 14.322538,-6.19455 1.169283,-0.20134 1.866516,-0.45958 2.007062,-0.74337 0.428499,-0.86523 1.983428,-6.38253 1.839373,-6.52658 -0.08125,-0.0812 -1.085414,-0.47971 -2.231474,-0.88546 -7.342703,-2.59963 -13.16016,-6.12606 -18.503223,-11.21628 l -2.711356,-2.58305 -3.63888,4.30284 c -6.97129,8.24329 -7.99605,9.04016 -11.62612,9.04067 -3.50858,4.9e-4 -5.77258,-1.41979 -7.46249,-4.68145 -0.60304,-1.16392 -0.71421,-1.70982 -0.71194,-3.49596 0.003,-2.61537 0.66344,-4.15572 2.60797,-6.08558 1.08106,-1.07291 6.78121,-4.75901 13.6248,-8.81071 0.32334,-0.19143 0.2537,-0.50396 -0.43239,-1.94027 -2.89732,-6.0655 -4.48792,-12.73137 -4.77013,-19.9907 l -0.15624,-4.01893 -8.75812,-0.0935 c -7.64179,-0.0816 -8.91812,-0.1542 -10.01336,-0.56949 -1.647861,-0.62482 -3.755962,-2.54691 -4.645113,-4.23524 -0.62736,-1.19125 -0.71184,-1.64922 -0.71297,-3.86493 -0.001,-2.2929 0.0676,-2.63792 0.78359,-3.93053 0.875501,-1.58064 2.048142,-2.65838 3.837233,-3.52671 0.94534,-0.45882 1.67415,-0.58231 3.4477,-0.5842 2.44687,-0.003 1.80441,-0.18262 11.64167,3.26206 2.98318,1.04461 5.51255,1.92223 5.62082,1.95028 0.10827,0.028 0.61316,-1.13965 1.12197,-2.59485 2.16109,-6.18074 5.52143,-11.97906 9.82974,-16.9614 l 1.397007,-1.61555 -2.818437,-2.48549 c -3.98995,-3.51859 -3.50983,-3.2873 -5.43661,-2.6191 -2.10134,0.72873 -5.47937,0.96799 -7.65289,0.54205 -5.22502,-1.02394 -9.02761,-5.10117 -9.75783,-10.46259 -0.51209,-3.75981 0.12272,-7.22661 2.05751,-11.23638 1.03053,-2.13573 1.56588,-2.86223 3.6306,-4.92695 2.07365,-2.07365 2.782,-2.59437 4.92696,-3.62192 5.83925,-2.79731 11.90534,-3.0368 16.715397,-0.65993 2.316774,1.14482 4.922768,3.86178 6.220053,6.48492 0.902135,1.82413 1.009957,2.26663 1.092512,4.48364 l 0.09159,2.45977 1.363614,0.41128 c 2.999424,0.90464 6.525261,0.80123 10.234037,-0.30016 l 1.348685,-0.40051 -2.331429,-1.45922 c -5.020658,-3.14238 -10.221337,-7.75865 -13.191284,-11.70896 -1.608042,-2.13885 -4.224153,-6.91278 -5.219931,-9.52544 -0.418881,-1.09903 -0.487988,-1.1531 -1.309342,-1.02445 -0.476917,0.0747 -3.941582,0.53307 -7.699262,1.01862 -6.20196,0.80137 -6.89717,0.8463 -7.53713,0.4871 -1.46606,-0.82288 -1.42068,-2.85098 0.0832,-3.71917 0.69735,-0.40258 7.76983,-1.59038 13.19012,-2.21524 1.533209,-0.17675 1.548277,-0.18679 1.39915,-0.93243 -0.08291,-0.41456 -0.283335,-1.80337 -0.44538,-3.08624 -0.16205,-1.28288 -0.37495,-2.80533 -0.47312,-3.38324 l -0.17848,-1.05074 -1.98437,-0.31767 c -1.09141,-0.17472 -4.77758,-0.76328 -8.1915,-1.3079 -5.36344,-0.85563 -6.28947,-1.07257 -6.81302,-1.59613 -0.7415,-0.7415 -0.78821,-1.9337 -0.10865,-2.77293 0.44385,-0.548136 0.69243,-0.607368 2.3151,-0.551586 0.99982,0.0344 4.25864,0.420786 7.24182,0.858726 7.6229,1.11905 7.67291,1.12564 7.67291,1.01026 0,-0.98648 0.926341,-7.472228 1.344358,-9.412478 0.716149,-3.32407 2.580723,-9.010156 3.647715,-11.123855 l 0.829206,-1.642649 -0.517823,-3.248253 c -1.547092,-9.704756 -1.341073,-22.809573 0.498753,-31.725572 1.164211,-5.641889 2.515442,-8.594401 4.549224,-9.940294 0.978431,-0.647495 1.371477,-0.740718 3.122998,-0.740718 1.764588,0 2.24821,0.116757 4.052667,0.978409 3.182805,1.51983 6.118087,3.685036 10.335453,7.623928 2.304844,2.152655 2.221971,2.253173 1.216459,-1.475465 -0.708913,-2.62879 -0.670435,-4.206373 0.121921,-4.998729 0.745014,-0.745014 2.282237,-1.554957 4.624447,-2.436563 1.065166,-0.400927 2.223584,-1.106432 3.060413,-1.863866 3.950829,-3.575991 11.482755,-7.431882 17.96854,-9.198803 4.68718,-1.276921 8.01336,-1.761429 13.14543,-1.914823 5.40794,-0.161639 8.50666,0.09584 13.75652,1.143069 8.22703,1.641099 16.17798,5.443007 22.48959,10.753844 1.75987,1.48083 2.2388,1.73739 4.23333,2.267767 1.23693,0.328918 2.68964,0.888684 3.22826,1.243922 1.38332,0.912357 1.46086,1.732714 0.49883,5.27809 -0.43323,1.596575 -0.75582,2.934727 -0.71688,2.973671 0.0389,0.03894 1.31235,-1.002678 2.82978,-2.314716 5.11104,-4.419229 8.89489,-6.577936 11.94418,-6.814217 2.20924,-0.171189 3.27582,0.114692 4.47717,1.200039 1.37047,1.238138 2.24376,2.988694 3.02259,6.058898 1.30097,5.128609 1.5636,8.03759 1.56118,17.292418 -0.002,8.717698 -0.10887,10.219298 -1.21785,17.158043 -0.61958,3.876601 -0.66949,3.456606 0.90078,7.580498 2.23923,5.880737 3.93713,16.116835 3.53451,21.308415 l -0.12693,1.63668 0.77556,-0.15511 c 0.42656,-0.0853 3.18628,-0.23512 6.13271,-0.3329 l 5.35715,-0.17779 0.85989,0.72399 c 0.99619,0.83874 1.13329,1.86821 0.37373,2.80623 -0.5689,0.70256 -2.16954,0.99632 -5.59925,1.02761 -1.23692,0.0113 -3.57704,0.0971 -5.20027,0.19059 l -2.95131,0.17007 -0.45758,2.40842 c -0.38736,2.03883 -1.78863,7.15738 -2.37564,8.67774 -0.14282,0.3699 0.167,0.55131 1.7678,1.03512 2.66572,0.80566 8.98179,3.36805 9.54773,3.87345 0.75643,0.67551 0.59651,2.09077 -0.34233,3.02962 -1.06695,1.06694 -1.58125,0.97361 -7.41957,-1.34645 -2.53405,-1.00699 -4.84549,-1.89859 -5.13653,-1.98133 -0.43506,-0.12368 -0.79812,0.2601 -2.04132,2.15783 -3.28428,5.01337 -7.47229,9.07192 -13.37586,12.96238 l -2.98175,1.96499 2.8732,2.98873 c 7.03631,7.31925 13.44319,17.86691 16.79616,27.65154 2.87724,8.39638 4.68269,18.80978 4.68269,27.0087 v 2.63822 l 0.8599,-0.43935 c 1.62461,-0.83005 4.75915,-4.31408 5.92508,-6.5857 2.73817,-5.33487 3.35642,-9.27943 3.79445,-24.20937 0.28096,-9.57666 0.67794,-12.76647 2.28848,-18.38855 0.96757,-3.37759 3.30716,-8.52168 5.02002,-11.03756 2.35876,-3.4646 6.02987,-6.53967 9.48864,-7.94808 5.24834,-2.13711 10.26085,-1.39581 13.87559,2.05207 2.55236,2.43453 3.71187,5.32368 3.71663,9.26066 0.005,4.28501 -1.37687,7.63285 -5.02431,12.17083 -4.19455,5.21866 -5.26593,8.89587 -5.28056,18.12396 -0.0295,18.63713 -4.58841,32.41076 -13.74992,41.5424 -6.37658,6.35578 -14.14617,10.0618 -23.84429,11.3735 l -2.26882,0.30686 -1.40186,3.22039 c -7.63179,17.53206 -16.97269,28.34503 -26.70225,30.91038 -5.82078,1.53473 -13.16443,-0.081 -16.38519,-3.60502 -1.52503,-1.66861 -2.13991,-3.19282 -2.35138,-5.82872 -0.19082,-2.3786 0.33735,-4.53299 1.88073,-7.67131 0.64365,-1.3088 1.11053,-2.43989 1.03751,-2.51354 -0.073,-0.0736 -1.67142,-0.19343 -3.55199,-0.26619 -3.65773,-0.14152 -3.92681,-0.041 -2.77805,1.03824 1.81076,1.70112 2.46501,5.98038 1.30249,8.51914 -0.80158,1.75052 -2.28847,3.2782 -4.01675,4.12692 -1.24752,0.61263 -1.82915,0.73302 -3.48206,0.72074 -4.04638,-0.0301 -5.87661,-1.52411 -8.89388,-7.26024 -1.14748,-2.18147 -2.14586,-3.96389 -2.21862,-3.96094 -0.0728,0.003 -0.42995,0.49648 -0.79375,1.09673 -1.01248,1.67053 -4.17235,4.79545 -6.03693,5.97016 l -1.67132,1.05295 2.33277,0.72207 c 4.50161,1.3934 7.22857,3.09961 8.29502,5.19003 0.7202,1.41171 0.71875,4.37619 -0.003,5.79062 -2.74406,5.3788 -18.555504,8.81391 -36.915697,8.02013 z m 12.7,-5.89703 c 12.703882,-1.06037 21.861482,-4.10739 19.248472,-6.40457 -1.90343,-1.67335 -8.6323,-3.42216 -14.696544,-3.81957 l -2.601794,-0.17051 0.17942,2.22371 c 0.26867,3.32986 0.358456,3.28352 -6.945903,3.58443 l -4.287181,0.17662 -0.409567,1.0236 c -0.225261,0.56299 -0.885638,1.54009 -1.467505,2.17134 -0.581867,0.63125 -1.057939,1.22371 -1.057939,1.31657 0,0.26438 8.514751,0.19251 12.038541,-0.10162 z m -23.151041,-1.15141 c 0,-0.0544 -0.327421,-0.67951 -0.727604,-1.38906 -0.670482,-1.18882 -0.727194,-1.51441 -0.722382,-4.14733 l 0.0052,-2.85724 -1.063555,0.17641 c -5.251137,0.87094 -9.754756,3.02708 -8.967374,4.29318 0.741835,1.19287 3.33529,2.28662 8.036111,3.3891 2.4727,0.57992 3.439583,0.7303 3.439583,0.53494 z m 8.164122,-2.68782 c 1.178507,-0.99164 1.458632,-2.15324 1.268948,-5.26194 -0.0895,-1.46679 -0.166783,-4.09565 -0.171741,-5.8419 -0.005,-1.74625 -0.09649,-3.31215 -0.203401,-3.47979 -0.106913,-0.16763 -0.730168,-0.38413 -1.385011,-0.4811 l -1.190625,-0.17632 -1.662805,5.77277 c -1.749233,6.07283 -1.974546,7.74277 -1.172663,8.69133 1.351926,1.59922 3.168725,1.9117 4.517298,0.77695 z m 12.116132,-7.7304 c -0.09367,-1.12779 -0.307972,-3.57241 -0.476224,-5.4325 l -0.305914,-3.38198 -2.803746,0.0747 -2.803745,0.0747 0.0147,0.85989 c 0.0081,0.47295 0.03785,2.88396 0.06615,5.35781 l 0.05145,4.49792 h 3.213824 3.213824 z m 63.002459,1.12246 c 6.89373,-1.62534 13.84097,-9.19075 20.32097,-22.12916 4.28011,-8.54596 6.70573,-16.13503 8.10606,-25.36153 0.53816,-3.54581 0.4463,-16.52006 -0.14518,-20.5052 C 176.9668,174.15595 169.1437,158.70289 157.6794,148.6378 l -1.70983,-1.50115 -2.35708,0.75641 c -2.84797,0.91393 -6.05333,1.59588 -7.50112,1.59588 -1.4847,0 -2.69933,-1.08605 -2.73794,-2.44811 -0.0422,-1.48995 0.77309,-2.18092 3.21239,-2.72247 2.81395,-0.62471 5.99642,-1.77746 9.53233,-3.45276 5.18343,-2.4559 9.20021,-5.29477 12.73769,-9.00239 1.91694,-2.00913 4.66358,-5.57449 4.45506,-5.78301 -0.0556,-0.0556 -2.6477,-0.70271 -5.76028,-1.43806 -3.27209,-0.77304 -5.86564,-1.52381 -6.14857,-1.77986 -1.1425,-1.03395 -0.32453,-3.80042 1.12368,-3.80042 0.30509,0 3.07329,0.52337 6.15157,1.16303 3.07827,0.63967 5.93729,1.22096 6.35337,1.29176 0.69482,0.11822 0.80744,0.0175 1.3811,-1.23556 0.6824,-1.49057 2.28704,-7.52426 2.08709,-7.84779 -0.0683,-0.11051 -0.33242,-0.15355 -0.58694,-0.0957 -0.86534,0.19686 -12.4792,1.43256 -13.464,1.43256 -1.32106,0 -1.94772,-0.61564 -1.94772,-1.91345 0,-0.7803 0.18124,-1.21891 0.7307,-1.76837 0.79712,-0.79712 1.15888,-0.86442 9.32347,-1.73451 2.11005,-0.22486 4.4796,-0.47822 5.26567,-0.56302 l 1.42921,-0.15418 -0.16987,-3.74626 c -0.35391,-7.805108 -1.96845,-15.038658 -4.72114,-21.152001 -0.89045,-1.977568 -1.0453,-2.564337 -0.91512,-3.467536 0.0862,-0.597943 0.38924,-2.694512 0.67344,-4.659043 1.47,-10.161101 1.57749,-23.52771 0.23405,-29.104165 -0.43053,-1.787044 -1.2019,-3.175 -1.76454,-3.175 -0.69221,0 -5.53372,3.28754 -8.49837,5.770661 -2.47726,2.074905 -9.38356,8.874419 -10.20011,10.042409 -0.23052,0.329741 -0.94259,2.101619 -1.58238,3.937507 -0.63979,1.835887 -1.37585,3.573065 -1.63569,3.860395 -0.90229,0.997738 -3.57764,2.121253 -8.01306,3.365089 -16.50983,4.629886 -40.6244,3.977189 -55.29796,-1.496723 -3.238249,-1.208016 -4.333691,-1.771469 -4.938256,-2.54005 C 82.150546,64.929088 81.521972,63.288657 81.023413,61.626551 80.148368,58.709305 80.046278,58.521987 78.078598,56.223289 73.314731,50.658012 66.35708,44.577553 61.887234,42.073265 c -1.222147,-0.684723 -1.602585,-0.792061 -1.908238,-0.538392 -0.988514,0.820395 -1.958647,5.104339 -2.547387,11.248833 -0.413177,4.312202 -0.126836,16.781656 0.500143,21.780016 l 0.475199,3.78835 -1.234574,2.56165 c -1.818776,3.773823 -3.064783,7.29728 -4.071428,11.51318 -0.95792,4.01183 -1.86301,10.220338 -1.530633,10.499418 0.11095,0.0932 1.926218,0.55393 4.033928,1.02394 2.107711,0.47 4.128289,0.99653 4.490174,1.17006 1.299457,0.6231 1.541236,2.22381 0.504052,3.33709 -0.661719,0.71027 -1.368549,0.69486 -5.096599,-0.11117 -4.180195,-0.90379 -3.935486,-0.96034 -3.720567,0.85989 0.178204,1.50929 0.866763,5.13141 1.000987,5.26563 0.03846,0.0385 1.136575,-0.1032 2.440256,-0.31481 3.339777,-0.5421 4.66442,-0.50324 5.509648,0.16162 0.504944,0.39718 0.697139,0.79241 0.697139,1.43356 0,1.93827 -0.600077,2.3143 -4.43177,2.77711 -1.491589,0.18016 -2.711979,0.38388 -2.711979,0.45271 0,0.0688 0.621613,1.33536 1.381362,2.81451 4.434187,8.63288 12.626135,15.43715 23.294124,19.34823 1.420528,0.52079 3.088744,1.01624 3.707145,1.101 l 1.124367,0.15411 -0.003,-3.79761 c -0.0029,-3.63483 0.0299,-3.86881 0.763954,-5.45839 0.851708,-1.84435 1.879596,-2.87758 3.939188,-3.95968 1.206353,-0.63381 1.677867,-0.72475 3.760545,-0.72522 2.748127,-6.2e-4 3.903986,0.46007 5.726196,2.28228 1.39172,1.39172 2.127694,3.0948 2.284504,5.28648 0.1464,2.04613 0.0285,2.60776 -2.221274,10.58253 -0.92861,3.29163 -1.68838,6.05983 -1.68838,6.15156 0,0.0917 0.17104,0.16678 0.38008,0.16678 0.20905,0 1.80545,0.52418 3.547544,1.16485 6.01731,2.21291 10.90837,5.05469 15.84828,9.20806 l 2.5167,2.11599 6.11777,-6.20218 c 6.81228,-6.90625 7.07627,-7.08458 10.4834,-7.08157 3.1353,0.003 6.35072,2.15187 7.72093,5.16047 0.84605,1.85768 0.8463,4.82791 5.4e-4,6.42807 -1.38679,2.6238 -2.32049,3.32268 -11.02876,8.25519 -2.91042,1.64851 -5.31451,3.01075 -5.34243,3.02722 -0.0493,0.0291 3.35155,6.80416 3.50747,6.98742 0.0429,0.0504 0.59236,-0.25603 1.22105,-0.68097 1.61695,-1.09291 3.65142,-1.83927 6.62772,-2.43142 3.28052,-0.65268 4.79444,-1.4853 7.08483,-3.89649 1.35653,-1.42807 2.14102,-2.56813 3.04296,-4.42217 0.92892,-1.90951 1.38951,-2.57024 1.95499,-2.80447 1.59914,-0.66239 3.20237,0.53978 3.20237,2.40126 0,1.3389 -2.06551,5.29427 -3.82493,7.32459 -3.03623,3.50372 -5.54516,4.97738 -10.23568,6.01211 -1.65276,0.36459 -3.64097,0.98372 -4.41825,1.37584 -1.88185,0.94934 -3.78372,3.05839 -4.35609,4.83063 -0.73128,2.26426 -0.53578,2.97656 0.50217,1.82964 1.76494,-1.95023 4.6057,-1.58561 4.6057,0.59116 0,0.60744 -0.25225,1.06656 -0.94488,1.71979 -0.51969,0.49013 -1.04576,0.89114 -1.16905,0.89114 -0.44343,0 -1.32566,1.80151 -1.32566,2.707 0,0.76472 0.22244,1.13282 1.28534,2.12704 0.70693,0.66125 1.78019,1.45474 2.38502,1.7633 l 1.09969,0.56101 0.26789,-0.7349 c 0.67033,-1.83887 0.90056,-2.24208 1.63126,-2.85693 0.95073,-0.79998 1.76622,-0.83267 2.68783,-0.10773 0.87892,0.69136 0.88777,1.47427 0.0357,3.15579 -0.3638,0.71793 -0.66146,1.38629 -0.66146,1.48524 0,0.4106 4.18829,-0.21723 6.43895,-0.9652 7.03988,-2.33961 13.29558,-8.005 16.42736,-14.87723 0.4943,-1.08468 1.09774,-2.04851 1.34098,-2.14185 2.1389,-0.82077 4.16276,1.14596 3.53216,3.43247 -1.16353,4.21888 -5.76792,10.15509 -10.74763,13.85639 l -2.65102,1.97044 0.78645,1.14305 c 1.71581,2.49385 1.97658,5.35241 0.74865,8.2068 -0.82016,1.90651 -2.90806,3.78957 -4.89463,4.41442 -2.70008,0.84928 -4.31298,0.55693 -12.73814,-2.30894 l -7.44541,-2.5326 -0.44989,1.63299 c -1.83983,6.67808 -4.60218,11.91439 -9.40257,17.82358 -1.15937,1.42715 -2.10883,2.67293 -2.10993,2.76839 -0.001,0.0955 1.06539,1.17837 2.36997,2.40644 l 2.37195,2.23287 2.98586,0.17204 c 1.64222,0.0946 3.90311,0.17259 5.0242,0.17325 l 2.03835,0.001 -0.6467,-1.38906 c -0.7259,-1.55918 -0.78062,-2.00765 -0.35807,-2.93504 0.41947,-0.92064 1.33264,-1.33337 2.47565,-1.11894 0.80219,0.15049 1.11534,0.42725 1.90891,1.68705 1.73252,2.75041 2.68901,3.44593 5.6982,4.14353 1.90339,0.44125 2.8526,1.29003 2.8526,2.55077 0,1.29298 -0.69967,2.29677 -2.09308,3.00286 -3.12372,1.58291 -5.62756,6.47393 -5.07831,9.92 0.18551,1.16392 0.41326,1.60957 1.18314,2.3151 1.43567,1.3157 1.75492,1.18431 1.75492,-0.72227 0,-2.72626 1.20464,-4.754 2.82424,-4.754 1.00115,0 1.93826,0.77163 1.93826,1.596 0,0.29571 -0.1786,0.9651 -0.39688,1.48752 -0.51414,1.23052 -0.50707,2.99141 0.015,3.73678 0.33649,0.48041 0.66337,0.58732 1.78593,0.58412 0.75574,-0.002 2.12048,-0.17989 3.03278,-0.39498 z M 113.09719,125.28497 c -1.05067,-0.52806 -2.15888,-1.27613 -2.4627,-1.66238 -0.46558,-0.59188 -0.62277,-0.65094 -1.00012,-0.37576 -2.50131,1.82408 -6.3767,2.40994 -9.1134,1.37771 -2.142384,-0.80806 -3.955264,-2.32308 -4.794104,-4.00641 -0.962817,-1.93212 -0.857733,-3.20799 0.33995,-4.12754 1.04813,-0.80472 1.7811,-0.38656 3.85689,2.20041 2.739884,3.41455 7.833154,1.9339 8.434294,-2.45191 l 0.16547,-1.20722 -1.86989,-1.73123 c -3.73735,-3.46019 -4.41267,-6.26601 -1.82964,-7.60175 1.50528,-0.7784 9.53694,-0.26581 12.00716,0.76632 1.13541,0.4744 1.86502,1.76028 1.63926,2.88907 -0.2641,1.32049 -2.10221,3.46849 -4.11074,4.80375 -1.81827,1.20879 -1.86552,1.26836 -1.85986,2.34446 0.0158,3.00263 2.805,5.5806 5.4924,5.07644 1.4215,-0.26667 2.2554,-0.77253 3.71064,-2.25089 1.50232,-1.5262 2.35001,-1.69596 3.37089,-0.67508 1.2497,1.2497 0.76985,3.2256 -1.21991,5.02323 -1.84101,1.66324 -3.70171,2.37703 -6.46504,2.48009 -2.29202,0.0855 -2.45283,0.0528 -4.29155,-0.87131 z m 23.34156,-15.14984 c -0.58209,-0.42425 -1.41552,-1.41703 -1.85209,-2.20617 -0.72555,-1.31153 -0.79375,-1.65076 -0.79375,-3.94835 0,-2.2197 0.087,-2.69064 0.74373,-4.028118 1.35157,-2.75233 3.90205,-4.22348 6.22355,-3.5898 1.34897,0.36821 3.05026,2.21026 3.61684,3.916068 0.71862,2.16361 0.47181,5.52105 -0.54291,7.38527 -0.42943,0.78895 -1.23399,1.79747 -1.78789,2.24115 -0.85125,0.68186 -1.28118,0.82175 -2.77813,0.904 -1.61639,0.0888 -1.86342,0.03 -2.82935,-0.67405 z M 81.935131,108.0617 c -1.221807,-0.63706 -1.661485,-1.13019 -2.437059,-2.73333 -0.600152,-1.24053 -0.71537,-1.82855 -0.711952,-3.63345 0.0036,-1.894838 0.108419,-2.365318 0.873145,-3.918698 1.315799,-2.67276 3.354761,-3.91315 5.707071,-3.47186 1.238947,0.23243 2.40007,1.26388 3.261942,2.89766 0.633842,1.20152 0.713636,1.63864 0.706093,3.868148 -0.0094,2.77874 -0.556728,4.46278 -1.923911,5.91959 -1.364813,1.45429 -3.820134,1.93499 -5.475329,1.07194 z m 15.197975,146.17459 c 4.347684,-1.16557 8.138554,-3.89914 11.388594,-8.21225 1.53645,-2.03903 1.91301,-2.8726 1.29767,-2.8726 -0.16133,0 -1.85797,0.76231 -3.77031,1.69403 -3.85985,1.88056 -7.010254,3.04962 -11.081127,4.11202 l -2.714642,0.70845 0.04875,0.90994 c 0.02681,0.50046 0.126861,1.72551 0.22233,2.72233 l 0.17358,1.8124 1.232878,-0.17317 c 0.678082,-0.0952 2.119107,-0.41076 3.202277,-0.70115 z m 29.699034,-0.5175 c 0.60491,-0.72458 0.74307,-1.14578 0.74307,-2.26537 0,-1.20284 -0.12925,-1.53587 -1.03072,-2.65583 -0.9175,-1.13986 -4.22803,-4.44568 -7.74281,-7.73178 l -1.2329,-1.15268 -1.09085,0.87663 c -0.72384,0.58169 -1.03851,1.01519 -0.93526,1.28843 0.0856,0.22649 1.47882,2.95586 3.09609,6.06528 3.36354,6.46684 3.62204,6.7495 6.01057,6.57225 1.2479,-0.0926 1.53875,-0.22545 2.18281,-0.99693 z m -34.843432,-9.5027 c 12.567162,-2.68142 22.969252,-9.79056 29.246342,-19.98791 3.1205,-5.06936 5.39774,-11.33483 6.19355,-17.04061 0.59803,-4.28768 0.54888,-5.89727 -0.21711,-7.11069 -1.00272,-1.58841 -2.01646,-4.72252 -2.18945,-6.76894 -0.11046,-1.30674 -0.0177,-2.60365 0.3013,-4.21107 l 0.46091,-2.32278 -0.71438,-2.03997 c -3.52153,-10.05598 -11.69445,-19.04332 -21.70407,-23.86682 -10.399901,-5.01158 -22.754289,-5.78842 -33.777859,-2.12395 -13.74727,4.56989 -24.739862,16.44754 -28.532682,30.82997 -1.04347,3.95682 -1.39383,6.7315 -1.40321,11.1125 -0.0332,15.50448 7.976683,29.84239 21.250452,38.03904 4.9454,3.05382 10.755962,5.04295 17.857041,6.113 0.436562,0.0658 2.996406,0.0798 5.688541,0.0312 3.72951,-0.0674 5.524674,-0.22281 7.540625,-0.65295 z m -13.890624,-6.52777 c -6.812214,-1.04101 -14.405153,-4.74288 -19.570087,-9.5412 -5.858362,-5.44254 -9.655657,-12.44988 -11.296882,-20.84672 -0.653756,-3.34475 -0.646456,-10.28028 0.01405,-13.36146 2.922638,-13.63356 11.46585,-23.60105 24.277438,-28.32483 3.971558,-1.46436 6.972205,-1.94238 12.264018,-1.95374 5.279854,-0.0113 8.045072,0.43386 12.536085,2.01821 12.704354,4.48186 21.837624,15.43083 24.004014,28.77596 0.49892,3.07333 0.47392,9.61487 -0.0487,12.73309 -0.49978,2.98221 -2.09665,7.939 -3.37614,10.47971 -7.14149,14.18112 -23.108711,22.41945 -38.803836,20.02098 z m 7.934856,-4.78949 c -0.0015,-0.10914 -0.177725,-1.74624 -0.391714,-3.63802 -0.213989,-1.89177 -0.391393,-3.60825 -0.394232,-3.81441 -0.01492,-1.08335 -0.318768,0.23948 -0.668934,2.91227 -0.217526,1.66034 -0.447335,3.40576 -0.510688,3.87871 -0.113062,0.84404 -0.09598,0.85989 0.926512,0.85989 0.572935,0 1.04051,-0.0893 1.039056,-0.19844 z M 80.192157,230.253 c 0.183401,-1.41883 0.680231,-4.69575 1.104066,-7.28204 0.958315,-5.84775 0.961915,-6.01327 0.130792,-6.01327 -0.351901,0 -0.828151,-0.0723 -1.058334,-0.1606 -0.308684,-0.11845 -0.418514,0.003 -0.418514,0.46305 0,0.34301 -0.408003,3.18349 -0.906672,6.31217 -1.33303,8.3635 -1.380532,8.9172 -0.778272,9.07197 1.547227,0.3976 1.570108,0.3692 1.926934,-2.39128 z m 12.854884,1.3337 c 2.154139,-0.65991 5.159375,-1.95895 5.159375,-2.23018 0,-0.13848 -1.56995,-2.24073 -3.488773,-4.67166 -1.918826,-2.43093 -3.972654,-5.04562 -4.564063,-5.81041 -0.789464,-1.0209 -1.09561,-1.2659 -1.151737,-0.9217 -0.04205,0.25785 0.225844,3.17349 0.595313,6.47919 0.369468,3.3057 0.67176,6.43141 0.67176,6.94602 0,1.05192 0.02071,1.05347 2.778125,0.20874 z m -18.485155,-5.76153 c 1.375127,-8.27137 1.606612,-10.44042 1.144692,-10.7259 -0.240941,-0.14891 -0.55407,-0.11802 -0.842338,0.0831 -3.015563,2.10387 -12.639685,9.26421 -12.635103,9.4005 0.0098,0.29037 3.21064,2.69242 5.205289,3.90625 2.106367,1.2818 5.327264,2.74728 5.876325,2.67366 0.271257,-0.0364 0.610186,-1.48231 1.251135,-5.33761 z m 28.262824,0.85596 0.67904,-0.59532 -4.513864,-5.95312 c -5.623015,-7.41596 -5.285594,-7.06197 -6.175592,-6.47882 -0.381312,0.24984 -0.693295,0.5515 -0.693295,0.67035 0,0.37686 9.542411,12.92669 9.840981,12.9425 0.10102,0.005 0.48926,-0.25817 0.86273,-0.58559 z m 6.25233,-6.10655 c 1.74879,-2.30189 4.47524,-7.14484 4.47524,-7.94931 0,-0.23654 -0.11621,-0.43008 -0.25825,-0.43008 -0.31991,0 -15.008004,-2.85228 -15.778734,-3.06407 -0.3847,-0.10572 -0.61421,-0.009 -0.73657,0.30964 -0.1283,0.33435 0.60981,1.49944 2.65354,4.1885 4.940804,6.5009 7.331074,9.42785 7.620894,9.33197 0.15478,-0.0512 1.06552,-1.12519 2.02388,-2.38665 z m -43.768773,-3.68304 c 3.323618,-2.51023 6.042942,-4.68603 6.042942,-4.83511 0,-0.14908 -0.25519,-0.59547 -0.567088,-0.99199 l -0.567088,-0.72093 -3.26937,2.42989 c -4.206472,3.12637 -8.957912,6.84712 -8.957912,7.01475 0,0.16824 1.065413,1.66746 1.184971,1.66746 0.04983,0 2.809928,-2.05383 6.133545,-4.56407 z m -4.672683,-4.56752 c 2.546615,-1.90832 5.303596,-3.96361 6.126624,-4.5673 l 1.496416,-1.09763 -0.310279,-1.05085 c -0.170654,-0.57796 -0.37279,-1.11336 -0.449193,-1.18976 -0.0764,-0.0764 -1.026882,-0.27257 -2.112178,-0.43592 -1.085296,-0.16335 -4.518013,-0.76359 -7.628261,-1.33385 -3.110247,-0.57027 -5.759388,-1.03685 -5.886978,-1.03685 -0.57168,0 0.05643,4.72842 1.088427,8.19366 0.894219,3.00263 2.394812,6.38232 2.740702,6.17272 0.167482,-0.1015 2.388106,-1.74589 4.93472,-3.65422 z m 24.371699,-0.39481 c 3.946892,-0.73661 7.631336,-3.93503 8.805253,-7.64374 1.303817,-4.11909 0.247184,-8.60805 -2.779501,-11.80832 -4.103841,-4.33921 -10.637706,-4.51172 -15.117699,-0.39915 -7.662892,7.03442 -3.248427,19.50975 7.107572,20.08607 0.30756,0.0171 1.200528,-0.0886 1.984375,-0.23486 z m -4.000496,-4.21456 c -2.188618,-0.66575 -3.987301,-2.4387 -4.613563,-4.54755 -1.734992,-5.84235 3.059421,-11.01634 8.691089,-9.37917 4.26033,1.23851 6.215173,6.20591 4.104479,10.42978 -0.853323,1.70765 -2.13047,2.82755 -3.920295,3.4376 -0.99731,0.33993 -3.236775,0.37111 -4.26171,0.0593 z m 3.782155,-4.88343 c 0.955215,-0.88526 1.176687,-2.29243 0.533998,-3.39287 -0.732502,-1.25421 -1.648414,-1.69565 -2.874134,-1.38521 -1.293498,0.3276 -1.996936,1.29329 -2.017308,2.76939 -0.01345,0.97484 0.115563,1.27603 0.813848,1.89995 1.086903,0.97115 2.564131,1.01648 3.543596,0.10874 z m 30.392578,4.58169 c 0.1032,-0.49844 0.10626,-0.97629 0.007,-1.06189 -0.26542,-0.22843 -16.170914,-3.2571 -16.320354,-3.10766 -0.0698,0.0698 -0.20013,0.49316 -0.28967,0.94084 -0.19784,0.9892 -0.64849,0.82488 5.978144,2.17978 2.83767,0.58019 6.23095,1.2873 7.54063,1.57135 1.30969,0.28405 2.49726,0.48662 2.63904,0.45015 0.14178,-0.0365 0.34221,-0.47413 0.44541,-0.97257 z m 0.4017,-8.25185 c -0.26242,-4.28893 -1.33362,-8.97477 -2.60744,-11.40594 l -0.3705,-0.70713 -1.8416,1.28434 c -1.01289,0.70639 -4.04426,2.81007 -6.73641,4.67484 -2.69215,1.86478 -4.996504,3.48072 -5.120794,3.59097 -0.12429,0.11026 -0.14359,0.68814 -0.0429,1.28418 0.13124,0.77677 0.31178,1.0837 0.63746,1.0837 0.2499,0 2.114664,0.36465 4.143944,0.81032 3.14362,0.6904 10.54826,2.00078 11.73344,2.07643 0.30569,0.0195 0.34171,-0.45395 0.20479,-2.69171 z m -48.231996,-0.2373 c 0.09196,-0.4598 0.134532,-0.86867 0.0946,-0.9086 -0.199182,-0.19919 -14.900928,-2.48655 -15.212788,-2.36688 -0.230615,0.0885 -0.332288,0.45262 -0.279457,1.00082 0.07829,0.81235 0.158838,0.87415 1.405962,1.07869 0.727604,0.11934 3.704167,0.61349 6.614583,1.09811 2.910417,0.48463 5.723268,0.893 6.250781,0.90751 0.872587,0.024 0.974199,-0.0491 1.126317,-0.80965 z m 2.018536,-5.78404 c 0.351705,-0.65716 0.564239,-0.31959 -3.411475,-5.41849 -6.286098,-8.06199 -6.122974,-7.88132 -6.669422,-7.38679 -0.797733,0.72194 -3.023267,4.09058 -4.037865,6.11184 -0.774186,1.54232 -2.023032,4.49265 -2.023613,4.78068 -7.3e-5,0.0364 0.245991,0.0662 0.546809,0.0662 0.300819,0 3.128553,0.46944 6.283854,1.0432 7.268303,1.32168 6.884571,1.25956 8.042706,1.30202 0.738549,0.0271 1.054006,-0.0969 1.269006,-0.49861 z m 29.528956,-1.5372 c 1.113544,-0.71972 9.697904,-6.87079 11.665294,-8.35871 0.0299,-0.0226 -0.22417,-0.39058 -0.56468,-0.81762 l -0.61912,-0.77645 -1.94886,1.28888 c -2.29978,1.52097 -7.661404,5.32353 -9.824254,6.96754 l -1.52535,1.15945 0.45792,0.77521 c 0.25186,0.42636 0.53286,0.7752 0.62444,0.7752 0.0916,0 0.87216,-0.45607 1.73461,-1.0135 z m -25.220064,-4.12021 c -0.256953,-0.44582 -1.491431,-2.04342 -4.926522,-6.37566 -1.730782,-2.18281 -3.46138,-4.36757 -3.845774,-4.85501 l -0.698897,-0.88625 -0.727604,0.57473 c -0.400182,0.3161 -0.727604,0.67171 -0.727604,0.79024 0,0.11853 0.803672,1.23282 1.785937,2.47621 0.982266,1.24338 3.138135,4.00533 4.790819,6.13765 l 3.004882,3.87696 0.756023,-0.72432 c 0.415812,-0.39837 0.680745,-0.85492 0.58874,-1.01455 z m 22.014222,-1.62384 c 0.436562,-0.31418 3.093682,-2.14852 5.904716,-4.07631 5.94481,-4.07688 5.77204,-3.34966 1.5518,-6.53195 -2.40083,-1.81035 -7.548018,-4.60663 -9.19873,-4.99732 -0.785832,-0.186 -0.640886,-0.88 -2.10107,10.06001 l -0.776917,5.82083 0.98194,0.84485 0.98194,0.84485 0.931286,-0.69686 c 0.512207,-0.38328 1.288473,-0.95392 1.725035,-1.2681 z m -16.15935,-0.75286 1.303148,-0.34331 1.129619,-7.78095 c 0.62129,-4.27952 1.136201,-7.88793 1.144247,-8.01869 0.0183,-0.29731 -3.921345,-0.0354 -5.690012,0.37829 -2.183356,0.51068 -5.965903,1.81637 -7.863705,2.71446 l -1.794389,0.84916 2.323555,3.05383 c 1.277955,1.67961 3.224695,4.12039 4.326089,5.42396 1.101394,1.30357 2.284644,2.75708 2.629444,3.23002 0.704818,0.96675 0.698977,0.9656 2.492004,0.49323 z m 7.663303,-1.15469 c 0.403693,-2.02633 1.758692,-12.04629 1.815815,-13.4276 l 0.06565,-1.5875 -0.937119,-0.0788 -0.937119,-0.0788 -0.306742,2.32779 c -0.168707,1.28029 -0.598513,4.29233 -0.955123,6.69342 -1.055852,7.10916 -1.049548,6.56764 -0.07789,6.68979 0.458008,0.0576 0.912579,0.12374 1.010157,0.14703 0.09758,0.0233 0.242645,-0.28508 0.322371,-0.68526 z m -53.816248,58.01141 c 0.59894,-0.30973 7.7045,-8.16979 8.85079,-9.79062 0.17629,-0.24927 -0.0419,-0.70686 -0.74785,-1.56838 -0.54823,-0.66903 -1.07695,-1.17251 -1.17496,-1.11883 -2.28209,1.24982 -10.20156,6.27626 -10.83461,6.87666 -0.47676,0.45217 -0.99848,1.2615 -1.15937,1.79851 -0.24979,0.83374 -0.21134,1.14405 0.26321,2.12418 0.30566,0.63129 0.88691,1.35299 1.29167,1.60378 0.91149,0.56476 2.49816,0.59852 3.51112,0.0747 z m 153.990461,-17.8404 c 12.00983,-3.0465 20.47566,-11.15021 24.63048,-23.57692 2.08754,-6.24365 2.79187,-11.15066 3.16024,-22.01694 0.28126,-8.29685 0.61993,-11.13165 1.72218,-14.41518 1.13522,-3.38177 1.90882,-4.69677 5.73938,-9.75611 2.05108,-2.70902 2.84899,-4.70078 2.84512,-7.10202 -0.007,-4.1397 -2.89607,-6.723 -7.20473,-6.44149 -6.75234,0.44116 -12.78931,8.43618 -14.99311,19.85603 -0.74206,3.84527 -1.03063,7.50639 -1.19775,15.19605 -0.34042,15.66369 -2.08425,22.70135 -7.16636,28.92151 -0.77283,0.94588 -2.12447,2.31329 -3.00365,3.03868 -1.67534,1.38228 -5.51039,3.82594 -6.0188,3.83513 -0.17465,0.003 -0.48747,1.28211 -0.76168,3.11421 -0.25592,1.70987 -0.85024,4.68643 -1.3207,6.61458 l -0.85539,3.50573 0.69103,-7.1e-4 c 0.38007,-3.9e-4 2.06025,-0.34804 3.73374,-0.77255 z M 150.88183,212.8446 c 2.08782,-1.07965 2.05629,-4.10266 -0.0601,-5.75895 -0.80665,-0.63129 -0.88522,-0.64248 -1.92348,-0.27375 -1.3589,0.48261 -5.68149,1.14782 -7.43247,1.1438 -1.23449,-0.003 -4.22106,-0.52756 -5.18965,-0.91181 -0.33072,-0.1312 -0.48961,0.0767 -0.70388,0.92083 -0.20449,0.8056 -0.19658,1.11938 0.0303,1.20172 0.16885,0.0613 3.04545,1.06438 6.39243,2.22909 6.43494,2.23927 7.13729,2.3538 8.88683,1.44907 z M 32.157439,191.97014 c 0.0851,-0.71904 0.12793,-1.32555 0.0951,-1.3478 -0.27598,-0.18712 -12.68304,-4.39587 -13.3072,-4.5141 -1.14267,-0.21645 -2.64366,0.48368 -3.28215,1.53093 -1.001001,1.64184 -0.44249,4.17537 1.10354,5.00591 1.05793,0.56834 1.93578,0.6324 8.66505,0.6324 h 6.57086 z m 99.050971,-25.06973 c 2.87669,-1.62879 5.67682,-3.40072 6.22252,-3.93762 0.9161,-0.90131 0.99219,-1.09173 0.99219,-2.48286 0,-1.30157 -0.10204,-1.60873 -0.74952,-2.25622 -0.41224,-0.41224 -1.25859,-0.90204 -1.88077,-1.08845 -1.03817,-0.31105 -1.22681,-0.28823 -2.2928,0.27727 -0.73801,0.39152 -2.68123,2.24937 -5.32913,5.09504 -2.29216,2.46335 -4.16757,4.58031 -4.16757,4.70435 0,0.27176 1.65293,2.64994 1.84182,2.64994 0.0731,0 2.48658,-1.33265 5.36326,-2.96145 z m -80.829489,-10.26873 -1.429625,-2.90047 -1.023237,1.29449 c -0.56278,0.71197 -1.2897,1.48113 -1.61537,1.70924 -0.32568,0.22811 -0.53979,0.45737 -0.47581,0.50947 0.064,0.0521 1.05484,0.95586 2.201904,2.00838 l 2.085572,1.91368 0.843096,-0.81716 0.843096,-0.81716 z m 15.105628,-1.75806 c 5.646261,-2.11302 9.379787,-2.88233 16.591734,-3.4188 1.625413,-0.12091 1.996744,-0.23068 2.009627,-0.59408 0.0087,-0.24516 0.06085,-0.97066 0.115909,-1.61221 l 0.100106,-1.16646 -2.242025,-0.6029 c -1.233114,-0.3316 -2.936529,-0.84548 -3.785368,-1.14196 l -1.543343,-0.53906 -1.274605,0.64589 c -1.532786,0.77672 -6.575582,2.31847 -9.105648,2.78389 -2.780883,0.51157 -7.212704,0.21648 -9.676034,-0.64427 l -1.976308,-0.69057 -1.045674,1.04568 -1.045675,1.04567 1.151797,2.46423 1.151798,2.46423 1.100119,-0.0894 c 1.029193,-0.0836 1.175354,-0.005 2.26706,1.22204 l 1.16694,1.31144 1.455209,-0.65615 c 0.800364,-0.36088 2.863336,-1.18312 4.584381,-1.8272 z m -29.51759,0.85131 c 0.0872,-0.0872 -0.21428,-0.54367 -0.6699,-1.01443 -0.88643,-0.91589 -1.64897,-2.47568 -1.64897,-3.373 0,-0.76041 1.15936,-1.84856 1.96954,-1.84856 0.43281,0 1.18393,0.46479 2.11774,1.31046 1.8459,1.67165 2.74722,2.12913 4.19483,2.12913 1.37382,0 2.64633,-0.75578 3.57447,-2.12297 0.9816,-1.44595 0.6975,-2.58677 -1.11825,-4.49039 -1.19202,-1.24971 -1.47792,-1.72099 -1.47792,-2.43625 0,-1.38148 0.62606,-2.06289 1.89529,-2.06289 0.96836,0 1.25544,0.17833 2.981589,1.85208 1.050534,1.01865 2.043817,1.85208 2.207294,1.85208 0.554156,0 1.646694,-1.76446 1.886137,-3.04614 0.524558,-2.80782 -1.60881,-6.26636 -4.87098,-7.89665 -4.99731,-2.49744 -12.00484,-0.76869 -16.28163,4.01665 -2.51101,2.80961 -3.57787,5.97068 -3.36817,9.97982 0.10962,2.09568 0.24385,2.66238 0.90981,3.84115 0.91305,1.61612 2.45682,2.82587 4.2422,3.32434 1.20498,0.33642 3.11404,0.32845 3.45692,-0.0144 z m 56.435052,-6.8313 c 0.165774,-0.61846 0.828977,-3.02948 1.473785,-5.35781 0.644808,-2.32833 1.243914,-5.0192 1.331348,-5.97971 0.157883,-1.73443 0.152188,-1.75387 -0.832917,-2.84427 -0.903656,-1.00024 -1.106039,-1.0979 -2.275196,-1.0979 -1.112827,0 -1.405812,0.12251 -2.205449,0.92214 -0.568161,0.56817 -0.994429,1.30451 -1.110458,1.91823 -0.103575,0.54785 -0.04581,3.25828 0.128371,6.02318 0.174179,2.76489 0.338725,5.50333 0.365657,6.08541 0.05204,1.12483 0.383203,1.34873 2.106045,1.42391 0.629079,0.0275 0.754515,-0.10715 1.018814,-1.09318 z M 126.51687,66.911607 c 6.40365,-0.521863 13.98418,-2.009885 18.38772,-3.609425 l 2.11585,-0.768558 2.44919,-7.917667 c 2.63785,-8.527571 3.7585,-12.471336 3.59134,-12.638498 -0.0579,-0.05789 -0.84937,0.05072 -1.75884,0.241362 -8.7611,1.83648 -21.43488,3.020838 -32.32589,3.020838 -11.50006,0 -26.258117,-1.324494 -35.308482,-3.168841 -1.498309,-0.305336 -2.782198,-0.497157 -2.853086,-0.426269 -0.07089,0.07089 0.768889,3.439636 1.866173,7.486106 1.097284,4.04647 2.31672,8.573047 2.709859,10.05906 l 0.714797,2.701842 1.898049,0.79016 c 5.330096,2.218925 14.18614,3.95517 22.97546,4.50439 3.93832,0.246094 10.59222,0.128543 15.53786,-0.2745 z m -13.36492,-2.549499 c -1.93445,-0.691937 -3.72113,-1.809741 -4.47731,-2.801147 -1.5482,-2.029798 -1.79028,-3.973625 -0.59879,-4.808176 1.22716,-0.859534 2.56602,-0.149899 2.56602,1.360066 0,0.520434 0.248,1.020877 0.7276,1.468192 0.68383,0.637801 1.69788,1.272455 2.03313,1.272455 0.0823,0 0.14968,-1.242133 0.14968,-2.760296 0,-2.52823 -0.0445,-2.77442 -0.52934,-2.928302 -0.91594,-0.290708 -1.92173,-1.893068 -2.04141,-3.252243 -0.0826,-0.938542 0.0413,-1.538609 0.50293,-2.434107 1.59136,-3.087307 5.30159,-3.233658 7.28705,-0.287441 1.22062,1.811289 0.58537,4.744109 -1.25433,5.790885 l -0.78655,0.447545 -0.002,2.844271 c -0.002,3.308438 0.092,3.394961 1.9293,1.777664 0.88257,-0.776865 1.23409,-1.295705 1.29402,-1.909975 0.0578,-0.592351 0.29525,-0.962332 0.79777,-1.243065 0.66001,-0.368706 0.77284,-0.357031 1.45522,0.150583 2.02718,1.508004 0.54569,4.650223 -3.09433,6.562993 -2.31131,1.214563 -4.04898,1.433294 -5.95898,0.750098 z m 2.89497,-12.126467 c 0.79916,-0.799151 0.33935,-1.965476 -0.77485,-1.965476 -0.7092,0 -1.19062,0.48142 -1.19062,1.190625 0,1.114201 1.16632,1.574002 1.96547,0.774851 z m 16.22665,-12.551162 c 5.78892,-0.384292 12.9789,-1.236819 15.24814,-1.807995 l 0.76421,-0.192355 -1.82255,-1.672362 c -8.75403,-8.032684 -21.83831,-11.643551 -36.48296,-10.068196 -9.07188,0.975878 -17.304419,4.489543 -23.483553,10.022822 -1.615515,1.446659 -1.805325,1.349042 4.356348,2.240418 6.819981,0.986609 10.920555,1.349822 20.714705,1.834824 3.04288,0.150683 16.57072,-0.08266 20.70566,-0.357156 z"
       id="path1" /></g></svg>
